<svg xmlns="http://www.w3.org/2000/svg" width="110.002" height="110" viewBox="0 0 110.002 110">
  <g id="Group_1358379" data-name="Group 1358379" transform="translate(-847.998 -5626.629)">
    <g id="Group_1357760" data-name="Group 1357760" transform="translate(0.976 -133.911)">
      <g id="Group_1204463" data-name="Group 1204463" transform="translate(516.023 1323)">
        <g id="Group_1204289" data-name="Group 1204289" transform="translate(-540.113 4160.376)">
          <g id="Group_1188789" data-name="Group 1188789" transform="translate(871.113 277.164)">
            <path id="Path_1243039" data-name="Path 1243039" d="M47.05,0h0a47.05,47.05,0,1,1,0,94.1h0a47.05,47.05,0,1,1,0-94.1Z" transform="translate(7.951 7.949)" fill="#e2fbfb"/>
            <rect id="Rectangle_400907" data-name="Rectangle 400907" width="100.44" height="100.438" rx="50.219" transform="translate(4.782 4.781)" fill="none"/>
            <g id="Group_1098742" data-name="Group 1098742" transform="translate(0)">
              <g id="Rectangle_400898" data-name="Rectangle 400898" transform="translate(0)" fill="none" stroke="#fff" stroke-width="2" opacity="0.859">
                <rect width="110.001" height="110" rx="55" stroke="none"/>
                <rect x="1" y="1" width="108.001" height="108" rx="54" fill="none"/>
              </g>
              <g id="Rectangle_400907-2" data-name="Rectangle 400907" transform="translate(0)" fill="none" stroke="#0f1f33" stroke-linecap="round" stroke-width="2">
                <rect width="110.001" height="110" rx="55" stroke="none"/>
                <rect x="1" y="1" width="108.001" height="108" rx="54" fill="none"/>
              </g>
            </g>
          </g>
        </g>
      </g>
    </g>
    <g id="_2" data-name="2" transform="translate(870.251 5641.702)">
      <g id="Group_1358378" data-name="Group 1358378" transform="translate(-3.841 9.095)">
        <g id="Group_1358372" data-name="Group 1358372" transform="translate(21.326 39.215)">
          <path id="Path_1445737" data-name="Path 1445737" d="M179.321,306.6V324.4c0,2.418-6.158,4.378-13.754,4.378s-13.754-1.96-13.754-4.378V306.6c0-2.418,6.158-4.378,13.754-4.378S179.321,304.187,179.321,306.6Z" transform="translate(-151.813 -302.227)" fill="#ffe177" fill-rule="evenodd"/>
          <path id="Path_1445738" data-name="Path 1445738" d="M259.309,306.6V324.4c0,2.418-6.158,4.378-13.754,4.378q-.532,0-1.055-.013c7.1-.172,12.7-2.06,12.7-4.365V306.6c0-2.3-5.6-4.193-12.7-4.365q.522-.013,1.055-.013C253.151,302.227,259.309,304.187,259.309,306.6Z" transform="translate(-231.801 -302.227)" fill="#ffd064" fill-rule="evenodd"/>
          <path id="Path_1445739" data-name="Path 1445739" d="M151.813,343.075c0,2.418,6.158,4.378,13.754,4.378s13.754-1.96,13.754-4.378v-8.9c0,2.418-6.158,4.378-13.754,4.378s-13.754-1.96-13.754-4.378Z" transform="translate(-151.813 -329.8)" fill="#ffd064" fill-rule="evenodd"/>
          <path id="Path_1445740" data-name="Path 1445740" d="M337.188,345.405c1.336-.675,2.11-1.474,2.11-2.331v-8.9c0,.857-.774,1.656-2.11,2.331Z" transform="translate(-311.79 -329.8)" fill="#ffc338" fill-rule="evenodd"/>
        </g>
        <g id="Group_1358373" data-name="Group 1358373" transform="translate(0 2.594)">
          <circle id="Ellipse_12523" data-name="Ellipse 12523" cx="10.142" cy="10.142" r="10.142" transform="translate(0 5.598) rotate(-16.024)" fill="#8ac9fe"/>
        </g>
        <g id="Group_1358377" data-name="Group 1358377" transform="translate(25.807 0)">
          <g id="Group_1358375" data-name="Group 1358375">
            <path id="Path_1445741" data-name="Path 1445741" d="M185.482,16h12.555a.927.927,0,0,1,.678.281l4.071,4.071a.927.927,0,0,1,.281.678v20.3a.961.961,0,0,1-.959.959H185.482a.961.961,0,0,1-.959-.959V16.959a.961.961,0,0,1,.959-.959Z" transform="translate(-184.523 -16)" fill="#eceff1" fill-rule="evenodd"/>
            <g id="Group_1358374" data-name="Group 1358374">
              <path id="Path_1445742" data-name="Path 1445742" d="M185.482,16h.817V42.29h-.817a.961.961,0,0,1-.959-.959V16.959a.961.961,0,0,1,.959-.959Z" transform="translate(-184.523 -16)" fill="#d1d1d6" fill-rule="evenodd"/>
              <path id="Path_1445743" data-name="Path 1445743" d="M286.614,21.157h4a.963.963,0,0,0-.2-.281L286.347,16.8a.961.961,0,0,0-.281-.2v4A.549.549,0,0,0,286.614,21.157Z" transform="translate(-272.154 -16.524)" fill="#d1d1d6" fill-rule="evenodd"/>
            </g>
          </g>
          <g id="Group_1358376" data-name="Group 1358376" transform="translate(22.736 3.38)">
            <path id="Path_1445744" data-name="Path 1445744" d="M352.2,40.669h16.482a1.733,1.733,0,0,1,1.728,1.728V67.861a1.733,1.733,0,0,1-1.728,1.728H352.2a1.733,1.733,0,0,1-1.728-1.728V42.4A1.733,1.733,0,0,1,352.2,40.669Z" transform="translate(-350.468 -40.669)" fill="#837683" fill-rule="evenodd"/>
            <path id="Path_1445745" data-name="Path 1445745" d="M369.2,40.9a1.735,1.735,0,0,1,1.4,1.7V68.059a1.733,1.733,0,0,1-1.728,1.728H352.394a1.735,1.735,0,0,1-1.7-1.4,1.715,1.715,0,0,0,.327.031h16.482a1.733,1.733,0,0,0,1.728-1.728V41.225A1.718,1.718,0,0,0,369.2,40.9Z" transform="translate(-350.666 -40.867)" fill="#685e68" fill-rule="evenodd"/>
            <path id="Path_1445746" data-name="Path 1445746" d="M392.157,107.89a4.949,4.949,0,0,1,4.932,4.546.372.372,0,0,1-.371.4H387.6a.373.373,0,0,1-.371-.4A4.949,4.949,0,0,1,392.157,107.89Z" transform="translate(-382.187 -98.68)" fill="#60b7ff" fill-rule="evenodd"/>
            <path id="Path_1445747" data-name="Path 1445747" d="M420.889,107.89a4.949,4.949,0,0,1,4.932,4.546.372.372,0,0,1-.371.4h-.745a.373.373,0,0,0,.371-.4,4.949,4.949,0,0,0-4.56-4.532Q420.7,107.89,420.889,107.89Z" transform="translate(-410.92 -98.68)" fill="#41a8fc" fill-rule="evenodd"/>
            <circle id="Ellipse_12524" data-name="Ellipse 12524" cx="2.502" cy="2.502" r="2.502" transform="translate(7.43 3.895) rotate(-1.203)" fill="#f6dccd"/>
            <path id="Path_1445748" data-name="Path 1445748" d="M421.737,68.772a2.5,2.5,0,1,1,0,5c-.08,0-.159,0-.238-.011a2.5,2.5,0,0,0,0-4.981Q421.616,68.772,421.737,68.772Z" transform="translate(-411.767 -64.922)" fill="#f1cbbc" fill-rule="evenodd"/>
          </g>
        </g>
      </g>
      <path id="Path_1445749" data-name="Path 1445749" d="M64.892,22.576a3.857,3.857,0,0,1,3.693,2.755H61.2A3.857,3.857,0,0,1,64.892,22.576Zm0-5a1.406,1.406,0,1,1-1.407,1.406A1.406,1.406,0,0,1,64.892,17.572Zm-4.947,9.951h9.9a1.1,1.1,0,0,0,1.1-1.1,6.049,6.049,0,0,0-3.155-5.308,3.6,3.6,0,1,0-5.777,0,6.049,6.049,0,0,0-3.155,5.308A1.1,1.1,0,0,0,59.944,27.523ZM71.53,32.065a1.1,1.1,0,0,1-1.1,1.1H59.351a1.1,1.1,0,1,1,0-2.192H70.433A1.1,1.1,0,0,1,71.53,32.065Zm0,4.025a1.1,1.1,0,0,1-1.1,1.1H59.351a1.1,1.1,0,1,1,0-2.192H70.433A1.1,1.1,0,0,1,71.53,36.09Zm2.236,3.577V14.2a.64.64,0,0,0-.631-.633H56.65a.64.64,0,0,0-.631.633V39.667a.64.64,0,0,0,.631.631H73.134a.64.64,0,0,0,.631-.631ZM73.134,11.38H56.65A2.828,2.828,0,0,0,53.826,14.2V39.667a2.827,2.827,0,0,0,2.824,2.824H73.134a2.827,2.827,0,0,0,2.823-2.824V14.2a2.828,2.828,0,0,0-2.823-2.825Zm-48.748,48.7a1.1,1.1,0,0,1-.48.907l-3.874,2.629A1.1,1.1,0,0,1,18.8,61.8l.923-.625H13.977a1.1,1.1,0,0,1-1.1-1.1V40.025a1.1,1.1,0,1,1,2.192,0V58.985h4.65l-.922-.626a1.1,1.1,0,0,1,1.231-1.814l3.874,2.629A1.1,1.1,0,0,1,24.386,60.081Zm45.651-14.4v14.4a1.1,1.1,0,0,1-1.1,1.1H63.2l.922.625a1.1,1.1,0,1,1-1.23,1.815l-3.874-2.629a1.1,1.1,0,0,1,0-1.814l3.874-2.629a1.1,1.1,0,1,1,1.23,1.814l-.922.626h4.65v-13.3a1.1,1.1,0,0,1,2.192,0ZM42.555,38.055v3.969l.626-.922a1.1,1.1,0,1,1,1.813,1.23l-2.628,3.875a1.1,1.1,0,0,1-1.814,0l-2.628-3.875a1.1,1.1,0,1,1,1.814-1.23l.626.922V38.055a1.1,1.1,0,1,1,2.192,0Zm4.993-11.093a1.1,1.1,0,0,1-1.1,1.1H36.468a1.1,1.1,0,1,1,0-2.192h9.984A1.1,1.1,0,0,1,47.548,26.961Zm0-8.845a1.1,1.1,0,0,1-1.1,1.1H36.468a1.1,1.1,0,1,1,0-2.192h9.984A1.1,1.1,0,0,1,47.548,18.116ZM35.371,13.693a1.1,1.1,0,0,1,1.1-1.1h6.175a1.1,1.1,0,1,1,0,2.192H36.468a1.1,1.1,0,0,1-1.1-1.1Zm12.177,8.845a1.1,1.1,0,0,1-1.1,1.1H36.468a1.1,1.1,0,1,1,0-2.192h9.984A1.1,1.1,0,0,1,47.548,22.538Zm0,8.845a1.1,1.1,0,0,1-1.1,1.1H36.468a1.1,1.1,0,1,1,0-2.192h9.984A1.1,1.1,0,0,1,47.548,31.384ZM33.283,10.192v24.1H49.636V14.825H46.1a1.1,1.1,0,0,1-1.1-1.1V10.192ZM47.2,11.741l.891.892H47.2ZM32.187,36.482H50.732a1.1,1.1,0,0,0,1.1-1.1V13.729a1.1,1.1,0,0,0-.32-.776L46.874,8.32A1.1,1.1,0,0,0,46.1,8H32.187a1.1,1.1,0,0,0-1.1,1.1v26.29a1.1,1.1,0,0,0,1.1,1.1Zm-6.493-6.889c-.315-.16-.646-.308-.988-.444a12.538,12.538,0,0,0,.959-3.849H27.5A8.648,8.648,0,0,1,25.694,29.593ZM10.265,25.3H12.1a12.577,12.577,0,0,0,.959,3.849c-.342.136-.672.284-.987.444A8.647,8.647,0,0,1,10.265,25.3Zm1.809-6.486c.314.16.642.308.982.442a12.472,12.472,0,0,0-.956,3.851H10.265A8.657,8.657,0,0,1,12.074,18.815Zm7.906,4.294V20.266A16.59,16.59,0,0,0,22.6,19.9a10.257,10.257,0,0,1,.867,3.2Zm0,5.035V25.3h3.483a10.36,10.36,0,0,1-.87,3.2A16.54,16.54,0,0,0,19.98,28.144ZM23.661,31.1c.113.041.224.084.334.129a8.309,8.309,0,0,1-.784.508C23.368,31.528,23.518,31.314,23.661,31.1ZM19.98,32V30.345c.475.033.946.086,1.408.163A10.271,10.271,0,0,1,19.98,32Zm-5.424-.269a8.489,8.489,0,0,1-.784-.508c.11-.045.222-.088.335-.129C14.25,31.314,14.4,31.528,14.556,31.735Zm3.232-1.389V32a10.263,10.263,0,0,1-1.408-1.495C16.841,30.433,17.312,30.378,17.788,30.345Zm0-5.045v2.843a16.565,16.565,0,0,0-2.613.36,10.364,10.364,0,0,1-.87-3.2Zm0-5.035v2.843H14.3a10.271,10.271,0,0,1,.868-3.2A16.626,16.626,0,0,0,17.788,20.266ZM14.1,17.31q-.167-.062-.331-.127a8.6,8.6,0,0,1,.776-.5C14.393,16.884,14.244,17.1,14.1,17.31Zm3.685-.907v1.661c-.477-.033-.949-.088-1.412-.165a10.376,10.376,0,0,1,1.412-1.5Zm5.432.276a8.609,8.609,0,0,1,.775.5q-.163.066-.33.127C23.523,17.1,23.375,16.884,23.22,16.679ZM19.98,16.4a10.393,10.393,0,0,1,1.412,1.5c-.462.077-.935.132-1.412.165ZM27.5,23.109H25.667a12.453,12.453,0,0,0-.956-3.851c.34-.134.668-.282.982-.442A8.659,8.659,0,0,1,27.5,23.109Zm-8.618-9.786A10.883,10.883,0,1,0,29.766,24.2,10.895,10.895,0,0,0,18.884,13.322ZM43.933,70.411a1.1,1.1,0,0,1-1.1,1.1H40.082a1.1,1.1,0,1,1,0-2.192h2.755A1.1,1.1,0,0,1,43.933,70.411Zm0-8.9a1.1,1.1,0,0,1-1.1,1.1H40.082a1.1,1.1,0,1,1,0-2.192h2.755A1.1,1.1,0,0,1,43.933,61.515Zm6.92-6.775a32.3,32.3,0,0,1-9.393,1.23,32.3,32.3,0,0,1-9.393-1.23c-2.4-.763-3.265-1.644-3.265-2.051s.87-1.289,3.265-2.051a32.3,32.3,0,0,1,9.393-1.231,32.3,32.3,0,0,1,9.393,1.231c2.4.762,3.265,1.644,3.265,2.051S53.249,53.976,50.852,54.739Zm0,8.9c2.4-.762,3.265-1.644,3.265-2.051V55.714a12.761,12.761,0,0,1-2.6,1.116A34.547,34.547,0,0,1,41.46,58.162,34.551,34.551,0,0,1,31.4,56.829a12.784,12.784,0,0,1-2.6-1.116v5.871c0,.407.87,1.289,3.265,2.051a32.262,32.262,0,0,0,9.393,1.232A32.261,32.261,0,0,0,50.852,63.635Zm0,8.9c2.4-.763,3.265-1.644,3.265-2.051V64.61a12.61,12.61,0,0,1-2.6,1.115A34.488,34.488,0,0,1,41.46,67.059,34.492,34.492,0,0,1,31.4,65.725a12.632,12.632,0,0,1-2.6-1.115v5.872c0,.407.87,1.288,3.265,2.051a32.308,32.308,0,0,0,9.393,1.23A32.306,32.306,0,0,0,50.852,72.533Zm.665-23.985A34.5,34.5,0,0,0,41.46,47.215,34.5,34.5,0,0,0,31.4,48.548c-3.961,1.26-4.792,2.947-4.792,4.14V70.482c0,1.192.831,2.879,4.792,4.14A34.547,34.547,0,0,0,41.46,75.955a34.547,34.547,0,0,0,10.057-1.333c3.961-1.262,4.792-2.948,4.792-4.14V52.688C56.309,51.5,55.478,49.809,51.517,48.548Z" transform="translate(-10.22)" fill-rule="evenodd"/>
    </g>
  </g>
</svg>
