<svg xmlns="http://www.w3.org/2000/svg" width="98" height="97.998" viewBox="0 0 98 97.998">
  <g id="Group_1358574" data-name="Group 1358574" transform="translate(-3531.051 -9251)">
    <g id="Group_1357827" data-name="Group 1357827" transform="translate(2726.27 6706)">
      <g id="Group_1204477" data-name="Group 1204477">
        <g id="Group_1204438" data-name="Group 1204438" transform="translate(0.781 578)">
          <g id="Group_1204285" data-name="Group 1204285" transform="translate(1.219)">
            <g id="Group_1204180" data-name="Group 1204180" transform="translate(-1 -5.016)">
              <g id="Group_1204143" data-name="Group 1204143" transform="translate(-67.331 1694.852)">
                <g id="Group_1188789" data-name="Group 1188789" transform="translate(871.113 277.164)">
                  <path id="Path_1243039" data-name="Path 1243039" d="M41.05,0h0a41.05,41.05,0,0,1,0,82.1h0a41.05,41.05,0,0,1,0-82.1Z" transform="translate(7.951 7.949)" fill="#9535dc"/>
                  <rect id="Rectangle_400907" data-name="Rectangle 400907" width="88.438" height="88.437" rx="44.218" transform="translate(4.782 4.781)" fill="none"/>
                  <g id="Group_1098742" data-name="Group 1098742" transform="translate(0)">
                    <g id="Rectangle_400898" data-name="Rectangle 400898" transform="translate(0)" fill="none" stroke="#fff" stroke-width="2" opacity="0.859">
                      <rect width="98" height="97.999" rx="48.999" stroke="none"/>
                      <rect x="1" y="1" width="96" height="95.999" rx="47.999" fill="none"/>
                    </g>
                    <g id="Rectangle_400907-2" data-name="Rectangle 400907" transform="translate(0)" fill="none" stroke="#0f1f33" stroke-linecap="round" stroke-width="2">
                      <rect width="98" height="97.999" rx="48.999" stroke="none"/>
                      <rect x="1" y="1" width="96" height="95.999" rx="47.999" fill="none"/>
                    </g>
                  </g>
                </g>
              </g>
            </g>
          </g>
        </g>
      </g>
    </g>
    <g id="_8" data-name="8" transform="translate(3544.977 9265.439)">
      <g id="Group_1358573" data-name="Group 1358573" transform="translate(8.58 8.869)">
        <g id="Group_1358569" data-name="Group 1358569" transform="translate(0 0)">
          <path id="Path_1446087" data-name="Path 1446087" d="M27.888,31.506a.884.884,0,0,1,.883.883V48.631a.884.884,0,0,1-.883.883H14.294a.884.884,0,0,1-.883-.883V32.389a.884.884,0,0,1,.883-.883Z" transform="translate(-13.411 -29.825)" fill="#eceff1" fill-rule="evenodd"/>
          <path id="Path_1446088" data-name="Path 1446088" d="M138,31.506a.884.884,0,0,1,.883.883V48.631a.884.884,0,0,1-.883.883h-1.084a.884.884,0,0,0,.883-.883V32.389a.884.884,0,0,0-.883-.883Z" transform="translate(-123.52 -29.825)" fill="#d1d1d6" fill-rule="evenodd"/>
          <path id="Path_1446089" data-name="Path 1446089" d="M53.433,17.151h1.02a.531.531,0,0,0,.487-.3,1.5,1.5,0,0,1,2.7,0,.531.531,0,0,0,.487.3h1.02a.543.543,0,0,1,.542.542V18.9a.543.543,0,0,1-.542.542H53.433a.543.543,0,0,1-.542-.542V17.693A.543.543,0,0,1,53.433,17.151Z" transform="translate(-48.61 -16.003)" fill="#e3a76f" fill-rule="evenodd"/>
          <path id="Path_1446090" data-name="Path 1446090" d="M80.872,16.048a1.5,1.5,0,0,1,1.714.8.531.531,0,0,0,.487.3h-.729a.531.531,0,0,1-.487-.3A1.5,1.5,0,0,0,80.872,16.048Zm2.492,1.1h.729a.543.543,0,0,1,.542.542V18.9a.543.543,0,0,1-.542.542h-.729a.543.543,0,0,0,.542-.542V17.693A.543.543,0,0,0,83.364,17.151Z" transform="translate(-73.556 -16.003)" fill="#c48958" fill-rule="evenodd"/>
        </g>
        <g id="Group_1358570" data-name="Group 1358570" transform="translate(36.692 0)">
          <path id="Path_1446091" data-name="Path 1446091" d="M366.245,31.506a.884.884,0,0,1,.883.883V48.631a.884.884,0,0,1-.883.883H352.651a.884.884,0,0,1-.883-.883V32.389a.884.884,0,0,1,.883-.883Z" transform="translate(-351.768 -29.825)" fill="#eceff1" fill-rule="evenodd"/>
          <path id="Path_1446092" data-name="Path 1446092" d="M476.355,31.506a.884.884,0,0,1,.883.883V48.631a.884.884,0,0,1-.883.883h-1.084a.884.884,0,0,0,.883-.883V32.389a.884.884,0,0,0-.883-.883Z" transform="translate(-461.878 -29.825)" fill="#d1d1d6" fill-rule="evenodd"/>
          <path id="Path_1446093" data-name="Path 1446093" d="M391.789,17.151h1.02a.531.531,0,0,0,.487-.3,1.5,1.5,0,0,1,2.7,0,.531.531,0,0,0,.487.3h1.02a.543.543,0,0,1,.542.542V18.9a.543.543,0,0,1-.542.542h-5.713a.543.543,0,0,1-.542-.542V17.693A.544.544,0,0,1,391.789,17.151Z" transform="translate(-386.966 -16.003)" fill="#e3a76f" fill-rule="evenodd"/>
          <path id="Path_1446094" data-name="Path 1446094" d="M419.229,16.048a1.5,1.5,0,0,1,1.714.8.531.531,0,0,0,.487.3H420.7a.531.531,0,0,1-.487-.3A1.5,1.5,0,0,0,419.229,16.048Zm2.492,1.1h.729a.543.543,0,0,1,.542.542V18.9a.543.543,0,0,1-.542.542h-.729a.543.543,0,0,0,.542-.542V17.693A.543.543,0,0,0,421.721,17.151Z" transform="translate(-411.913 -16.003)" fill="#c48958" fill-rule="evenodd"/>
        </g>
        <g id="Group_1358571" data-name="Group 1358571" transform="translate(18.346 32.362)">
          <path id="Path_1446095" data-name="Path 1446095" d="M197.067,329.939a.884.884,0,0,1,.883.883v16.243a.884.884,0,0,1-.883.883H183.473a.884.884,0,0,1-.883-.883V330.822a.884.884,0,0,1,.883-.883h13.594Z" transform="translate(-182.59 -328.258)" fill="#eceff1" fill-rule="evenodd"/>
          <path id="Path_1446096" data-name="Path 1446096" d="M307.176,329.939a.884.884,0,0,1,.883.883v16.243a.884.884,0,0,1-.883.883h-1.084a.884.884,0,0,0,.883-.883V330.822a.884.884,0,0,0-.883-.883h1.084Z" transform="translate(-292.699 -328.258)" fill="#d1d1d6" fill-rule="evenodd"/>
          <path id="Path_1446097" data-name="Path 1446097" d="M222.612,315.584h1.02a.531.531,0,0,0,.487-.3,1.5,1.5,0,0,1,2.7,0,.531.531,0,0,0,.487.3h1.02a.543.543,0,0,1,.542.542v1.211a.543.543,0,0,1-.542.542h-5.713a.543.543,0,0,1-.542-.542v-1.211A.543.543,0,0,1,222.612,315.584Z" transform="translate(-217.789 -314.436)" fill="#e3a76f" fill-rule="evenodd"/>
          <path id="Path_1446098" data-name="Path 1446098" d="M250.051,314.482a1.5,1.5,0,0,1,1.714.8.531.531,0,0,0,.487.3h-.729a.531.531,0,0,1-.487-.3A1.5,1.5,0,0,0,250.051,314.482Zm2.492,1.1h.729a.543.543,0,0,1,.542.542v1.211a.543.543,0,0,1-.542.542h-.729a.543.543,0,0,0,.542-.542v-1.211A.543.543,0,0,0,252.543,315.585Z" transform="translate(-242.735 -314.437)" fill="#c48958" fill-rule="evenodd"/>
        </g>
        <g id="Group_1358572" data-name="Group 1358572" transform="translate(7.903 4.817)">
          <path id="Path_1446099" data-name="Path 1446099" d="M337.331,299.6a13.6,13.6,0,0,1-2.3,2.527l6.242,6.119,2.376-2.449Z" transform="translate(-308.061 -273.664)" fill="#a79ba7" fill-rule="evenodd"/>
          <path id="Path_1446100" data-name="Path 1446100" d="M351.007,299.212a1.567,1.567,0,0,1-.68.911l6.2,6.16.759-.832Z" transform="translate(-321.695 -273.318)" fill="#837683" fill-rule="evenodd"/>
          <path id="Path_1446101" data-name="Path 1446101" d="M387.062,353.446l2.682-2.764a1.233,1.233,0,0,0-.026-1.739l-7.428-7.208a1.233,1.233,0,0,0-1.739.026l-2.682,2.764a1.233,1.233,0,0,0,.026,1.739l7.428,7.208A1.233,1.233,0,0,0,387.062,353.446Z" transform="translate(-345.942 -310.922)" fill="#f1ba84" fill-rule="evenodd"/>
          <path id="Path_1446102" data-name="Path 1446102" d="M408.822,341.736l7.428,7.208a1.233,1.233,0,0,1,.026,1.739l-2.682,2.764a1.217,1.217,0,0,1-.333.243,1.234,1.234,0,0,0,1.432-.243l2.682-2.764a1.233,1.233,0,0,0-.026-1.739l-7.428-7.208a1.235,1.235,0,0,0-1.406-.217A1.219,1.219,0,0,1,408.822,341.736Z" transform="translate(-373.573 -310.922)" fill="#e3a76f" fill-rule="evenodd"/>
          <circle id="Ellipse_12549" data-name="Ellipse 12549" cx="13.527" cy="13.527" r="13.527" transform="translate(0 19.127) rotate(-45)" fill="#8ac9fe"/>
          <path id="Path_1446103" data-name="Path 1446103" d="M257.33,112.065a13.527,13.527,0,0,1,0,27.054q-.33,0-.657-.016a13.527,13.527,0,0,0,0-27.021q.326-.016.657-.016Z" transform="translate(-238.197 -106.465)" fill="#60b7ff" fill-rule="evenodd"/>
          <circle id="Ellipse_12550" data-name="Ellipse 12550" cx="10.701" cy="10.701" r="10.701" transform="translate(3.996 19.127) rotate(-45)" fill="#eceff1"/>
          <path id="Path_1446104" data-name="Path 1446104" d="M174.749,138.125c.243,0,.484.009.723.025a10.7,10.7,0,0,0,0,21.352c-.239.016-.48.025-.723.025a10.7,10.7,0,0,1,0-21.4Z" transform="translate(-155.616 -129.699)" fill="#d1d1d6" fill-rule="evenodd"/>
        </g>
      </g>
      <path id="Path_1446105" data-name="Path 1446105" d="M45.733,32.812A9.833,9.833,0,1,0,35.9,42.646a9.847,9.847,0,0,0,9.836-9.833Zm1.735,0A11.569,11.569,0,1,1,35.9,21.244,11.582,11.582,0,0,1,47.469,32.812ZM42.89,27.831a.865.865,0,0,1,.332.8l-.464,3.631a.867.867,0,1,1-1.72-.221l.046-.376-3.9,5.188a.871.871,0,0,1-1.526-.267L34.336,32.27,30.115,37.64a.86.86,0,0,1-.684.332.882.882,0,0,1-.536-.186.87.87,0,0,1-.143-1.218l5.242-6.675a.867.867,0,0,1,1.511.281l1.312,4.276,2.935-3.9-.434.18a.867.867,0,0,1-.669-1.6l3.379-1.411A.872.872,0,0,1,42.89,27.831Zm17.048,24.5-7.427-7.208a.375.375,0,0,0-.255-.1h-.005A.369.369,0,0,0,52,45.13l-2.68,2.764a.364.364,0,0,0,.005.512l7.432,7.208a.365.365,0,0,0,.51-.008l2.68-2.764a.369.369,0,0,0-.005-.512Zm-11.061-1.94-.766-.74a2.106,2.106,0,0,1-.419-2.428l-3.068-2.975c-.383.294-.781.569-1.189.822v8.876A20.711,20.711,0,0,0,48.877,50.391ZM41.7,60.038V45.985a14.375,14.375,0,0,1-13.623-1.093l-.005,15.146c0,.007.01.015.015.015h13.6C41.691,60.052,41.7,60.044,41.7,60.038ZM26.343,53.946A20.9,20.9,0,0,1,14.736,29.425h7.171a14.386,14.386,0,0,0,4.446,14.153c-.005.071-.01.144-.01.217ZM9.744,27.69h12.7a14.405,14.405,0,0,1,.9-1.931V11.433a.015.015,0,0,0-.015-.015H20.81v.894a.867.867,0,0,1-.868.867h-6.8a.867.867,0,0,1-.868-.867v-.894H9.744a.02.02,0,0,0-.015.015V27.675a.02.02,0,0,0,.015.015Zm4.267-16.806h1.072a.862.862,0,0,0,.842-.664.633.633,0,0,1,1.23,0,.873.873,0,0,0,.847.664h1.072v.56H14.011Zm11.076,5.573a20.9,20.9,0,0,1,19.6,0V21.42a14.373,14.373,0,0,0-19.6,1.9Zm21.335-5.024V23a14.63,14.63,0,0,1,1.189,1.457,1.137,1.137,0,0,1-.01-.133.867.867,0,0,1,.868-.868h8.968a.868.868,0,0,1,0,1.735H48.469a.854.854,0,0,1-.439-.122,14,14,0,0,1,1.317,2.619H60.03a.02.02,0,0,0,.015-.015V11.433a.02.02,0,0,0-.015-.015H57.5v.894a.867.867,0,0,1-.868.867H49.837a.867.867,0,0,1-.868-.867v-.894H46.438a.015.015,0,0,0-.015.015Zm4.282-.549h1.072a.871.871,0,0,0,.842-.664.633.633,0,0,1,1.23,0,.867.867,0,0,0,.842.664h1.072v.56H50.7v-.56ZM48.556,32.812A12.658,12.658,0,1,1,35.9,20.153,12.672,12.672,0,0,1,48.556,32.812ZM50,44.7l-2.92-2.831a14.934,14.934,0,0,1-1.128,1.24l2.879,2.8Zm5.043-15.276h-5.15A14.381,14.381,0,0,1,48.1,40.443l3.18,3.085a2.115,2.115,0,0,1,.949-.241,2.068,2.068,0,0,1,1.49.59l.015.013a20.953,20.953,0,0,0,1.307-14.464Zm6.15,24.625-2.68,2.764a2.1,2.1,0,0,1-2.965.044L50.123,51.6a22.453,22.453,0,0,1-6.686,4.234v4.2a1.752,1.752,0,0,1-1.751,1.75h-13.6a1.748,1.748,0,0,1-1.746-1.75v-4.2a22.631,22.631,0,0,1-13.4-26.409h-3.2a1.753,1.753,0,0,1-1.751-1.75V11.433a1.753,1.753,0,0,1,1.751-1.75h2.6a.869.869,0,0,1,.8-.533h1.368a2.371,2.371,0,0,1,4.063,0h1.368a.874.874,0,0,1,.8.533h2.593a1.75,1.75,0,0,1,1.751,1.75v3.078a22.663,22.663,0,0,1,19.6,0V11.433a1.753,1.753,0,0,1,1.751-1.75h2.6a.863.863,0,0,1,.8-.533H51.2a2.371,2.371,0,0,1,4.063,0h1.368a.863.863,0,0,1,.8.533h2.6a1.753,1.753,0,0,1,1.751,1.75V27.675a1.753,1.753,0,0,1-1.751,1.75h-3.2a22.724,22.724,0,0,1-1.8,15.735l6.11,5.925a2.1,2.1,0,0,1,.041,2.965Zm-22.1,1.77a.868.868,0,1,1,0,1.735H30.125a.868.868,0,1,1,0-1.735Zm0-2.866a.867.867,0,1,1,0,1.735H30.125a.867.867,0,1,1,0-1.735Zm0-2.865a.867.867,0,1,1,0,1.735H30.125a.867.867,0,1,1,0-1.735Zm0-2.866a.867.867,0,1,1,0,1.735H30.125a.867.867,0,1,1,0-1.735ZM20.743,23.458a.868.868,0,0,1,0,1.735H11.78a.868.868,0,0,1,0-1.735Zm0-2.866a.868.868,0,1,1,0,1.735H11.78a.868.868,0,1,1,0-1.735Zm0-2.866a.867.867,0,1,1,0,1.735H11.78a.867.867,0,1,1,0-1.735ZM11.78,16.6a.867.867,0,1,1,0-1.735h8.963a.867.867,0,1,1,0,1.735Zm36.689,5.732a.868.868,0,1,1,0-1.735h8.968a.868.868,0,1,1,0,1.735Zm0-2.866a.867.867,0,1,1,0-1.735h8.968a.867.867,0,1,1,0,1.735ZM47.6,15.728a.867.867,0,0,1,.868-.868h8.968a.867.867,0,1,1,0,1.735H48.469A.867.867,0,0,1,47.6,15.728Z" fill="#242222" fill-rule="evenodd"/>
    </g>
  </g>
</svg>
